<svg xmlns="http://www.w3.org/2000/svg" xmlns:xlink="http://www.w3.org/1999/xlink" width="204" height="24" viewBox="0 0 204 24"><defs><path id="a" d="M.044 22.245V.445h199.084v21.8H.044z"></path></defs><g fill="none" fill-rule="evenodd"><path fill="#2D2E2C" d="M146.087 12.046v10.917H150v-21.8h-3.912v10.883M67.938 13.743h5.687v4.081c-1.363.997-3.272 1.65-5.37 1.65-4.547 0-7.568-3.3-7.568-7.784v-.065c0-4.172 3.115-7.69 7.216-7.69 2.831 0 4.516.902 6.232 2.335l2.48-2.9C74.33 1.475 71.94.416 68.066.416c-6.712 0-11.481 5.17-11.481 11.275v.062c0 6.352 4.58 11.211 11.541 11.211 3.944 0 7.09-1.558 9.287-3.396v-9.159h-9.474v3.335"></path><g transform="translate(0 .719)"><mask id="b" fill="#fff"><use xlink:href="#a"></use></mask><path fill="#2D2E2C" d="M186.533 18.818v-5.855h12.59V9.536h-12.59V3.87h12.59V.445h-16.501v21.8h16.506v-3.427h-12.595M0 22.245h3.91v-8.876h12.652V9.884H3.91V3.932H16.57V.445H0v21.8" mask="url(#b)"></path></g><path fill="#2D2E2C" d="M25.88 11.969V4.65h5.694c2.893 0 4.61 1.276 4.61 3.613v.062c0 2.21-1.78 3.643-4.578 3.643H25.88zm8.969 2.742c3.115-.872 5.31-3.021 5.31-6.603v-.063c0-1.902-.668-3.519-1.844-4.704-1.43-1.367-3.627-2.177-6.422-2.177h-9.922v21.8h3.91v-7.6h4.897l5.47 7.6h4.611l-6.01-8.253zM46.602 11.683v11.28h3.91v-21.8h-3.91v10.52M84.416 12.046v10.917h3.912v-21.8h-3.912v10.883M112.277 12.125c0 4.265-3.054 7.346-7.723 7.346h-4.39V4.65h4.39c4.669 0 7.723 3.146 7.723 7.41v.064zm-7.723-10.961H96.25v21.8h8.304c6.992 0 11.83-4.767 11.83-10.903V12c0-6.135-4.838-10.836-11.83-10.836zM161.847 11.969V4.65h5.693c2.892 0 4.61 1.276 4.61 3.613v.062c0 2.21-1.783 3.643-4.579 3.643h-5.724zm8.968 2.742c3.114-.872 5.308-3.021 5.308-6.603v-.063c0-1.902-.67-3.519-1.843-4.704-1.432-1.367-3.627-2.177-6.422-2.177h-9.92v21.8h3.909v-7.6h4.896l5.469 7.6h4.612l-6.01-8.253zM117.957 22.963h23.565L129.742.316l-11.785 22.647"></path><path fill="#DC3E54" d="M123.89 19.465l5.827-11.473 5.872 11.473H123.89"></path><path fill="#2D2E2C" d="M201.736 21.26c.221 0 .353-.104.353-.272v-.008c0-.177-.132-.272-.353-.272h-.442v.553h.442zm-.782-.853h.795c.237 0 .42.069.542.19a.48.48 0 0 1 .147.365v.008c0 .282-.17.457-.415.526l.48.66h-.404l-.434-.605h-.371v.605h-.34v-1.749zm2.215.923v-.009c0-.825-.656-1.495-1.523-1.495-.871 0-1.53.678-1.53 1.504v.01c0 .826.654 1.494 1.52 1.494.873 0 1.533-.678 1.533-1.504zm-3.233.01v-.01c0-.909.755-1.67 1.71-1.67.958 0 1.702.751 1.702 1.661v.009c0 .909-.755 1.67-1.712 1.67-.956 0-1.7-.751-1.7-1.66z"></path></g></svg>